<?xml version="1.0" standalone="no"?>
<!DOCTYPE svg PUBLIC "-//W3C//DTD SVG 20010904//EN"
 "http://www.w3.org/TR/2001/REC-SVG-20010904/DTD/svg10.dtd">
<svg version="1.0" xmlns="http://www.w3.org/2000/svg"
 width="500.000000pt" height="500.000000pt" viewBox="0 0 500.000000 500.000000"
 preserveAspectRatio="xMidYMid meet">

<g transform="translate(0.000000,500.000000) scale(0.100000,-0.100000)"
fill="#000000" stroke="none">
<path d="M2250 4730 c-139 -21 -215 -41 -340 -87 -580 -216 -999 -743 -1080
-1358 -7 -51 -10 -165 -8 -262 l3 -172 -137 -3 c-128 -3 -139 -5 -160 -26
l-23 -23 0 -515 0 -516 28 -24 c27 -23 33 -24 198 -24 l169 0 0 -255 c0 -273
2 -286 52 -332 39 -36 1479 -862 1515 -869 18 -3 48 -3 66 0 36 7 1476 833
1515 869 50 46 52 59 52 332 l0 255 169 0 c165 0 171 1 198 24 l28 24 0 516 0
515 -23 23 c-21 21 -32 23 -160 26 l-137 3 3 172 c5 245 -22 418 -98 625 -162
442 -521 811 -957 982 -279 110 -585 145 -873 100z m465 -164 c334 -52 623
-197 859 -432 222 -221 366 -500 423 -819 17 -94 23 -385 10 -437 -7 -26 -11
-28 -56 -28 -58 0 -81 7 -81 25 0 9 20 16 58 20 31 4 62 8 67 10 6 1 -24 19
-65 39 l-75 35 70 1 70 1 -38 23 -38 24 26 6 c35 9 22 26 -21 26 -21 0 -33 4
-29 10 3 6 -4 10 -16 10 -29 0 -13 17 21 22 25 4 24 5 -5 13 -63 17 -74 49
-22 63 l32 9 -42 22 c-24 12 -43 26 -43 32 0 5 15 16 33 24 26 11 29 15 15 20
-10 4 -18 13 -18 21 0 8 -9 14 -20 14 -11 0 -20 5 -20 10 0 6 7 10 16 10 27 0
10 34 -26 52 -35 17 -35 17 -7 18 37 0 35 25 -3 45 -36 18 -39 32 -7 37 20 3
18 5 -16 26 -22 14 -44 39 -52 59 -25 61 -23 63 60 63 l75 0 -39 78 c-57 113
-150 249 -232 336 l-71 76 -407 0 c-336 0 -411 2 -427 14 -10 8 -15 18 -11 23
5 4 183 10 395 13 l387 5 -45 36 c-241 193 -579 309 -901 309 -325 0 -666
-119 -913 -319 l-38 -31 458 -2 459 -3 -40 -20 c-38 -19 -63 -20 -487 -23
l-447 -3 -76 -82 c-88 -94 -164 -205 -224 -324 l-41 -83 110 0 c67 0 110 -4
110 -10 0 -12 -29 -42 -56 -59 -14 -9 -16 -14 -6 -18 10 -4 9 -9 -4 -24 -16
-17 -16 -19 1 -25 15 -6 15 -9 -6 -20 -13 -7 -32 -13 -41 -14 -25 0 -22 -17 4
-26 l21 -6 -23 -18 c-22 -17 -22 -18 -4 -22 15 -4 12 -8 -18 -23 -36 -18 -55
-44 -23 -32 8 4 17 2 20 -2 2 -5 -7 -12 -22 -15 -32 -9 -18 -28 20 -28 16 0
24 -5 21 -13 -3 -7 -15 -10 -27 -8 -12 2 -37 -6 -56 -17 -35 -22 -37 -39 -2
-21 12 7 22 7 26 2 3 -5 -15 -20 -40 -32 -50 -25 -55 -34 -24 -44 20 -7 19 -9
-15 -28 -20 -12 -36 -24 -36 -27 0 -3 26 -2 58 4 64 10 108 2 82 -14 -8 -6
-28 -10 -45 -10 -28 0 -115 -33 -115 -44 0 -2 18 -2 40 1 50 7 52 -7 5 -33
-40 -21 -45 -34 -12 -34 12 0 29 -5 37 -10 11 -7 7 -10 -17 -10 -37 0 -83 -16
-83 -28 0 -5 15 -14 32 -20 30 -9 31 -10 8 -11 -14 -1 -34 -8 -44 -16 -19 -15
-19 -15 5 -15 13 0 31 -5 39 -10 11 -7 4 -10 -27 -10 -38 0 -43 3 -50 28 -13
52 -7 343 10 437 118 655 617 1146 1272 1250 108 17 330 18 440 1z m-940 -933
c-11 -2 -42 -14 -69 -26 l-50 -22 35 -6 c35 -6 34 -7 -26 -30 l-30 -12 30 -9
c17 -5 44 -6 60 -4 17 3 24 2 18 -1 -7 -2 -13 -13 -13 -24 0 -17 -3 -17 -20
-7 -16 10 -27 9 -65 -10 -25 -12 -45 -26 -45 -32 0 -7 7 -7 21 1 15 8 24 8 32
0 6 -6 9 -12 6 -13 -2 -2 -26 -15 -54 -30 -27 -14 -51 -30 -52 -35 -2 -5 9
-14 24 -19 l28 -10 -23 -13 c-13 -7 -37 -10 -55 -8 -29 4 -30 5 -9 12 33 11
27 32 -15 54 -37 20 -37 20 -10 21 37 0 35 25 -3 45 -36 18 -39 32 -7 37 20 3
18 5 -17 27 -21 14 -44 39 -52 57 -28 66 -35 64 184 63 108 -1 188 -3 177 -6z
m444 3 c-2 -2 -29 -14 -59 -27 -30 -12 -66 -31 -79 -41 -26 -20 -41 -23 -41
-9 0 5 9 11 21 14 29 8 20 28 -22 49 l-34 18 109 0 c60 0 107 -2 105 -4z m796
-10 c-22 -7 -51 -19 -65 -26 -23 -12 -24 -14 -5 -21 14 -5 7 -8 -25 -8 -52 -1
-113 26 -118 52 -3 15 8 17 125 16 118 0 125 -1 88 -13z m655 4 c0 -12 -29
-42 -56 -59 -14 -9 -16 -14 -6 -18 10 -4 9 -9 -4 -24 -16 -17 -16 -19 1 -25
15 -6 15 -9 -6 -20 -13 -7 -32 -13 -41 -14 -25 0 -22 -17 4 -26 l21 -6 -23
-18 c-22 -17 -22 -18 -4 -22 15 -4 12 -8 -18 -23 -41 -20 -51 -37 -18 -28 11
3 20 1 20 -5 0 -5 -12 -13 -26 -16 -33 -9 -18 -28 20 -28 14 0 23 -4 20 -9 -3
-5 -14 -9 -25 -9 -21 0 -79 -26 -79 -36 0 -3 9 -4 20 -2 10 2 18 -1 17 -7 -1
-5 -6 -8 -12 -6 -5 2 -23 3 -40 3 -19 -1 -25 2 -16 8 10 6 8 10 -10 15 -22 8
-21 9 16 20 l40 11 -46 8 c-56 8 -89 37 -69 61 7 8 23 15 36 15 38 0 36 16 -6
35 -53 24 -66 40 -50 60 7 8 23 15 36 15 29 0 32 20 5 27 -11 3 -17 11 -14 18
3 9 -7 17 -29 23 l-33 9 27 13 c33 16 27 37 -16 56 -27 12 -8 13 167 14 125 0
197 -4 197 -10z m-1370 -60 c23 -16 -6 -30 -61 -30 -26 0 -63 -7 -82 -15 -20
-8 -43 -15 -51 -15 -10 0 -13 6 -10 15 4 10 0 15 -12 16 -11 1 6 9 36 19 60
20 156 25 180 10z m-342 -702 c45 -6 82 -14 82 -18 0 -4 -46 -13 -101 -20 -80
-10 -165 -10 -408 0 -168 6 -308 14 -310 16 -11 10 19 13 219 22 317 13 426
13 518 0z m1690 -5 c73 -3 129 -10 125 -14 -4 -4 -143 -13 -309 -19 -239 -10
-322 -10 -403 0 -55 7 -101 16 -101 20 0 27 289 32 688 13z m627 -142 c7 -35
52 -79 91 -90 l29 -7 0 -339 0 -339 -29 -7 c-39 -11 -84 -55 -91 -90 l-7 -29
-1768 0 -1768 0 -6 24 c-9 38 -54 85 -89 94 l-32 8 0 339 0 339 29 7 c39 11
84 55 91 90 l7 29 1768 0 1768 0 7 -29z m-2985 -1118 c0 -139 10 -183 53 -229
39 -41 1075 -641 1124 -650 18 -3 48 -3 66 0 49 9 1085 609 1124 650 43 46 53
90 53 229 l0 117 110 0 110 0 0 -176 c0 -199 -9 -252 -54 -298 -17 -17 -319
-198 -671 -401 l-640 -370 -65 0 -65 0 -640 370 c-352 203 -654 384 -671 401
-45 46 -54 99 -54 298 l0 176 110 0 110 0 0 -117z m2100 104 c-163 -13 -1617
-13 -1780 0 -93 7 136 10 890 10 754 0 983 -3 890 -10z m-1522 -130 c17 -14
15 -55 -8 -105 -21 -46 -52 -64 -87 -51 -19 7 -23 4 -28 -22 -4 -17 -14 -33
-22 -36 -32 -12 -33 14 -4 98 51 150 45 140 93 133 24 -4 49 -11 56 -17z m792
0 c0 -7 -13 -50 -30 -95 -16 -44 -26 -84 -21 -86 13 -8 30 17 50 71 10 27 23
48 31 48 16 0 18 -17 7 -80 -6 -34 -6 -37 5 -20 6 11 13 31 14 44 4 29 38 66
53 57 14 -9 14 -53 1 -61 -5 -3 -10 -13 -10 -21 0 -27 20 -14 41 29 12 23 23
44 25 46 7 8 93 10 98 3 2 -4 -4 -31 -14 -60 -10 -28 -15 -54 -10 -57 11 -7
26 14 48 70 18 45 22 49 55 51 58 4 65 -17 41 -106 -7 -23 -6 -24 11 -10 10 8
29 39 41 68 13 28 28 52 34 52 19 0 21 -25 5 -63 -35 -84 -6 -85 31 -1 13 30
27 55 31 55 5 1 27 3 51 4 49 4 52 -5 27 -75 -18 -52 -18 -51 1 -43 8 3 20 16
25 29 8 24 39 34 39 14 0 -22 -30 -69 -47 -73 -10 -3 -75 -5 -145 -5 -95 1
-131 4 -139 14 -11 14 -8 49 7 88 5 14 3 17 -7 14 -7 -2 -23 -29 -34 -59 l-21
-54 -74 -2 c-52 -1 -78 3 -85 12 -16 20 -58 22 -77 3 -12 -12 -32 -16 -85 -14
-73 3 -115 -11 -133 -43 -5 -11 -10 -22 -10 -25 0 -3 129 -7 287 -8 218 -2
287 -6 291 -15 3 -10 -115 -13 -568 -13 -453 0 -571 3 -568 13 4 9 60 13 226
15 191 2 222 4 222 18 0 8 11 25 24 37 l24 23 -103 -2 c-124 -3 -135 4 -116
67 7 23 10 43 7 46 -10 11 -24 -8 -36 -52 -16 -56 -29 -67 -77 -63 -37 3 -38
4 -37 43 0 22 4 48 9 59 6 14 5 18 -6 14 -7 -2 -23 -29 -35 -59 l-22 -54 -55
-3 c-41 -2 -60 2 -77 16 -22 18 -23 21 -10 66 17 62 50 86 89 65 14 -8 27 -23
29 -33 6 -27 -27 -56 -62 -56 -28 0 -29 -1 -14 -17 28 -27 65 -3 93 61 20 46
27 54 52 54 15 0 36 -5 47 -10 18 -10 18 -14 0 -93 -5 -25 -4 -28 7 -17 8 7
25 36 39 64 21 44 30 52 56 54 21 2 37 -3 48 -15 15 -16 15 -22 1 -61 -17 -47
-14 -60 6 -35 8 9 22 25 31 35 9 10 24 33 33 49 20 39 60 44 53 7 -3 -13 3
-39 13 -57 l18 -34 25 58 c14 31 30 57 36 57 20 0 22 -30 6 -70 -20 -51 -21
-66 -2 -50 8 6 22 34 31 61 18 53 31 67 47 51 7 -7 5 -25 -6 -58 -20 -59 -20
-70 -2 -54 8 6 27 44 42 83 15 40 31 80 36 90 10 20 38 23 38 4z m510 -18 c0
-23 -28 -26 -37 -3 -6 16 15 37 29 28 4 -3 8 -14 8 -25z m-602 -366 c2 -24 -2
-34 -17 -43 -27 -14 -27 -33 -1 -25 14 5 20 2 20 -9 0 -12 -10 -16 -35 -16
-30 0 -35 3 -35 24 0 15 10 32 27 44 16 11 23 24 19 31 -6 9 -11 8 -20 -5 -15
-20 -29 -5 -20 21 4 10 16 15 33 13 21 -2 27 -9 29 -35z m86 21 c9 -23 7 -87
-3 -102 -4 -8 -19 -12 -32 -10 -21 3 -24 9 -27 52 -2 27 -1 55 2 62 7 19 52
18 60 -2z m84 -18 c3 -20 -3 -32 -17 -43 -27 -18 -27 -33 -1 -26 14 4 20 0 20
-11 0 -12 -9 -16 -35 -16 -32 0 -35 2 -35 29 0 21 6 32 20 36 12 4 20 15 20
28 0 20 -1 20 -13 2 -10 -13 -16 -15 -21 -6 -14 22 2 43 31 39 22 -2 29 -9 31
-32z m77 -31 c0 -56 -2 -60 -24 -63 -29 -5 -41 12 -41 60 0 55 9 70 39 66 25
-3 26 -6 26 -63z m-565 35 c0 -5 -11 -10 -25 -10 -14 0 -25 -4 -25 -10 0 -5 6
-10 14 -10 24 0 30 -21 7 -27 -29 -7 -26 -23 4 -23 14 0 25 -4 25 -10 0 -5
-16 -10 -35 -10 l-35 0 0 55 0 55 35 0 c19 0 35 -4 35 -10z m75 0 c11 -17 -5
-32 -21 -19 -9 7 -14 8 -14 1 0 -6 9 -14 21 -17 32 -11 22 -59 -14 -63 -18 -2
-29 2 -33 13 -9 22 2 30 21 15 10 -8 15 -9 15 -2 0 6 -9 16 -20 22 -19 10 -27
40 -13 53 10 11 51 8 58 -3z m85 0 c0 -5 -4 -10 -10 -10 -5 0 -10 -20 -10 -45
0 -33 -4 -45 -15 -45 -11 0 -15 12 -15 45 0 25 -4 45 -10 45 -5 0 -10 5 -10
10 0 6 16 10 35 10 19 0 35 -4 35 -10z m35 -90 c-3 -5 -10 -10 -16 -10 -5 0
-9 5 -9 10 0 6 7 10 16 10 8 0 12 -4 9 -10z"/>
<path d="M2810 2591 c-95 -19 -143 -84 -144 -195 0 -105 38 -163 121 -185 78
-21 159 7 207 72 18 24 21 43 21 122 0 79 -3 98 -21 122 -40 53 -112 78 -184
64z m80 -110 c5 -11 10 -50 10 -86 0 -82 -11 -105 -50 -105 -53 0 -68 35 -61
145 2 22 7 46 13 53 17 20 76 15 88 -7z"/>
<path d="M1260 2400 l0 -190 55 0 55 0 0 70 0 70 60 0 60 0 0 -70 0 -70 55 0
55 0 0 190 0 190 -55 0 -54 0 -3 -72 -3 -73 -55 0 -55 0 3 73 3 72 -61 0 -60
0 0 -190z"/>
<path d="M1703 2400 l2 -190 55 0 55 0 2 190 2 190 -59 0 -59 0 2 -190z"/>
<path d="M1923 2400 l2 -190 105 0 c129 0 172 19 208 90 20 38 23 57 20 122
-5 135 -50 168 -225 168 l-112 0 2 -190z m201 78 c22 -31 21 -136 0 -166 -12
-18 -24 -22 -52 -20 -33 3 -37 6 -40 33 -2 17 -1 63 3 103 l7 72 33 0 c24 0
39 -7 49 -22z"/>
<path d="M2343 2400 l2 -190 133 0 132 0 0 45 0 45 -81 0 -80 0 3 28 c3 26 5
27 58 27 30 0 58 5 62 10 4 6 8 27 8 48 l0 39 -60 -7 -60 -7 0 31 0 31 74 0
73 0 6 37 c4 20 4 40 1 45 -3 4 -66 8 -139 8 l-134 0 2 -190z"/>
<path d="M3095 2438 c5 -167 12 -188 71 -217 39 -20 142 -18 182 3 59 30 67
54 71 218 l3 148 -62 0 -62 0 7 -127 c8 -143 1 -165 -50 -165 -49 0 -55 20
-48 163 l6 129 -61 0 -62 0 5 -152z"/>
<path d="M3490 2568 c0 -13 -3 -33 -6 -45 -6 -22 -3 -23 46 -23 l52 0 -4 -145
-3 -145 59 0 59 0 -7 72 c-3 39 -4 105 0 145 l7 73 37 0 c35 0 38 2 43 37 4
20 4 40 1 45 -3 4 -68 8 -145 8 -137 0 -139 0 -139 -22z"/>
<path d="M1274 2110 c-55 -22 -70 -95 -29 -135 49 -50 130 -24 141 46 10 61
-56 113 -112 89z m64 -42 c26 -26 3 -88 -33 -88 -21 0 -45 29 -45 54 0 28 18
46 45 46 12 0 26 -5 33 -12z"/>
<path d="M1474 2106 c-35 -15 -44 -32 -44 -81 0 -50 33 -77 90 -73 31 2 46 8
48 19 2 13 -6 16 -40 15 -35 -1 -44 3 -55 24 -19 39 3 65 56 65 32 0 41 4 41
18 0 9 -6 17 -12 17 -7 0 -22 2 -33 5 -11 3 -34 -1 -51 -9z"/>
<path d="M1654 2106 c-51 -22 -62 -95 -21 -134 54 -51 137 -13 137 61 0 35
-27 77 -49 77 -5 0 -15 2 -23 5 -7 2 -27 -2 -44 -9z m72 -51 c17 -26 -2 -69
-33 -73 -42 -6 -65 65 -29 91 18 12 48 3 62 -18z"/>
<path d="M2054 2106 c-51 -22 -62 -95 -21 -134 54 -51 137 -13 137 61 0 35
-27 77 -49 77 -5 0 -15 2 -23 5 -7 2 -27 -2 -44 -9z m72 -51 c17 -26 -2 -69
-33 -73 -42 -6 -65 65 -29 91 18 12 48 3 62 -18z"/>
<path d="M2244 2110 c-52 -21 -43 -70 17 -93 52 -20 44 -42 -12 -33 -30 5 -39
3 -39 -8 0 -17 22 -26 66 -26 24 0 38 6 49 24 21 32 11 51 -36 70 -48 20 -50
36 -4 36 24 0 35 5 35 15 0 8 -6 15 -14 15 -8 0 -20 2 -28 4 -7 3 -23 1 -34
-4z"/>
<path d="M2860 2107 c-38 -19 -54 -60 -40 -102 14 -43 38 -57 93 -53 30 2 43
8 45 20 3 14 -3 16 -33 11 -26 -4 -41 -1 -55 12 -43 39 -12 89 52 83 30 -3 38
0 38 13 0 10 -11 19 -31 23 -41 8 -40 8 -69 -7z"/>
<path d="M3484 2110 c-55 -22 -70 -95 -29 -135 49 -50 130 -24 141 46 10 61
-56 113 -112 89z m64 -42 c26 -26 3 -88 -33 -88 -21 0 -45 29 -45 54 0 28 18
46 45 46 12 0 26 -5 33 -12z"/>
<path d="M3864 2110 c-52 -21 -43 -70 17 -93 52 -20 44 -42 -12 -33 -30 5 -39
3 -39 -8 0 -17 22 -26 66 -26 24 0 38 6 49 24 21 32 11 51 -36 70 -48 20 -50
36 -4 36 24 0 35 5 35 15 0 8 -6 15 -14 15 -8 0 -20 2 -28 4 -7 3 -23 1 -34
-4z"/>
<path d="M1050 2030 c0 -73 2 -80 20 -80 15 0 20 7 20 24 0 21 5 25 37 28 30
2 41 9 51 31 12 24 11 31 -2 53 -14 21 -24 24 -71 24 l-55 0 0 -80z m97 34 c7
-18 -12 -34 -39 -34 -13 0 -18 8 -18 25 0 20 5 25 25 25 14 0 28 -7 32 -16z"/>
<path d="M1820 2030 c0 -64 3 -80 15 -80 11 0 15 12 15 48 l1 47 44 -47 c64
-70 75 -66 75 32 0 73 -2 80 -20 80 -17 0 -20 -7 -20 -47 l0 -48 -41 48 c-59
68 -69 64 -69 -33z"/>
<path d="M2441 2083 c6 -16 20 -52 31 -80 16 -43 24 -53 43 -53 19 0 27 11 49
71 31 83 31 89 8 89 -14 0 -23 -15 -37 -57 l-18 -58 -18 40 c-10 22 -20 48
-23 58 -2 9 -13 17 -25 17 -18 0 -19 -3 -10 -27z"/>
<path d="M2676 2102 c-5 -9 -56 -142 -56 -148 0 -12 39 -2 44 11 3 9 19 15 41
15 24 0 35 -4 35 -15 0 -8 9 -15 20 -15 25 0 25 1 -6 88 -23 61 -30 72 -50 72
-12 0 -25 -4 -28 -8z m44 -74 c0 -5 -9 -8 -20 -8 -18 0 -19 3 -9 21 9 17 13
19 20 8 5 -8 9 -17 9 -21z"/>
<path d="M3046 2102 c-5 -9 -56 -142 -56 -148 0 -12 39 -2 44 11 3 9 19 15 41
15 24 0 35 -4 35 -15 0 -8 9 -15 20 -15 25 0 25 1 -6 88 -23 61 -30 72 -50 72
-12 0 -25 -4 -28 -8z m44 -74 c0 -5 -9 -8 -20 -8 -18 0 -19 3 -9 21 9 17 13
19 20 8 5 -8 9 -17 9 -21z"/>
<path d="M3180 2095 c0 -9 9 -15 25 -15 24 0 25 -2 25 -65 0 -50 3 -65 15 -65
10 0 15 16 17 63 3 59 4 62 31 65 15 2 27 9 27 18 0 11 -16 14 -70 14 -56 0
-70 -3 -70 -15z"/>
<path d="M3350 2030 c0 -73 2 -80 20 -80 18 0 20 7 20 80 0 73 -2 80 -20 80
-18 0 -20 -7 -20 -80z"/>
<path d="M3640 2030 c0 -73 2 -80 19 -80 16 0 20 8 23 45 l3 45 35 -44 c19
-25 43 -45 53 -46 15 0 17 10 17 80 0 73 -2 80 -19 80 -16 0 -20 -8 -23 -45
l-3 -45 -35 44 c-19 25 -43 45 -52 46 -16 0 -18 -10 -18 -80z"/>
<path d="M1790 1526 c-16 -43 -16 -60 2 -64 19 -4 38 32 38 69 0 27 -29 24
-40 -5z"/>
<path d="M1920 1470 c0 -5 7 -10 15 -10 8 0 15 5 15 10 0 6 -7 10 -15 10 -8 0
-15 -4 -15 -10z"/>
<path d="M2841 1449 c-6 -18 -11 -39 -11 -48 0 -27 29 10 36 47 8 42 -10 42
-25 1z"/>
<path d="M3209 1453 c-5 -15 -8 -36 -6 -47 3 -17 6 -14 20 16 20 43 21 58 7
58 -6 0 -15 -12 -21 -27z"/>
<path d="M2330 1400 c-13 -8 -12 -10 3 -10 9 0 17 5 17 10 0 12 -1 12 -20 0z"/>
<path d="M2430 1309 c0 -5 5 -7 10 -4 6 3 10 8 10 11 0 2 -4 4 -10 4 -5 0 -10
-5 -10 -11z"/>
<path d="M2617 1203 c-11 -10 -8 -83 3 -83 6 0 10 20 10 45 0 46 -2 50 -13 38z"/>
<path d="M2780 1166 c0 -25 5 -46 10 -46 6 0 10 18 10 39 0 22 -4 43 -10 46
-6 4 -10 -12 -10 -39z"/>
</g>
</svg>
